<?xml version="1.0" encoding="UTF-8"?>
<svg xmlns="http://www.w3.org/2000/svg" width="720" height="840" viewBox="0 0 720 840" fill="none">

  <path d="M92 126L626 130C654 132 674 148 674 168L686 632C686 656 670 676 646 684L468 720L426 760V832H294V760L252 720L76 684C52 676 34 656 34 632L48 166C49 144 66 126 92 126Z" fill="#314d83" opacity="0.26" transform="translate(0 14)"/>
  <path d="M92 126L626 130C654 132 674 148 674 168L686 632C686 656 670 676 646 684L468 720L426 760V832H294V760L252 720L76 684C52 676 34 656 34 632L48 166C49 144 66 126 92 126Z" fill="#a7c4d0"/>
  <path d="M92 166H620C634 166 644 176 644 190L656 612C656 628 640 642 612 646L450 676L406 722V782H314V722L270 676L108 646C82 642 66 628 66 616L74 190C74 176 82 166 92 166Z" fill="#c8dbe2" opacity="0.34"/>
  <path d="M92 126L626 130C654 132 674 148 674 168L686 632C686 656 670 676 646 684L468 720L426 760V832H294V760L252 720L76 684C52 676 34 656 34 632L48 166C49 144 66 126 92 126Z" stroke="#38598e" stroke-width="22" opacity="0.52" transform="translate(0 10)" stroke-linejoin="round"/>
  <path d="M92 126L626 130C654 132 674 148 674 168L686 632C686 656 670 676 646 684L468 720L426 760V832H294V760L252 720L76 684C52 676 34 656 34 632L48 166C49 144 66 126 92 126Z" stroke="#466aa0" stroke-width="14" stroke-linejoin="round"/>
  <path d="M92 126L626 130C654 132 674 148 674 168L686 632C686 656 670 676 646 684L468 720L426 760V832H294V760L252 720L76 684C52 676 34 656 34 632L48 166C49 144 66 126 92 126Z" stroke="#d7ecf4" stroke-width="4" opacity="0.26" transform="translate(0 -2)" stroke-linejoin="round"/>
  <path d="M266 694H454L410 762V838H310V762Z" fill="#38598e" opacity="0.18" transform="translate(0 8)"/>
  <path d="M266 694H454L410 762V838H310V762Z" fill="#f4f8ff" opacity="0.96"/>
  <path d="M266 694H454L410 762V838H310V762Z" stroke="#466aa0" stroke-width="7" opacity="0.52" stroke-linejoin="round"/>
  <path d="M286 708H434L398 762V812H322V762Z" stroke="#ffffff" stroke-width="3" opacity="0.28" stroke-linejoin="round"/>

</svg>
