<?xml version="1.0" encoding="UTF-8"?>
<svg xmlns="http://www.w3.org/2000/svg" width="720" height="1148" viewBox="0 0 720 1148" fill="none">

  <path d="M92 126L626 130C654 132 674 148 674 168L686 632L676 666L646 696L500 724L454 746L426 780V812H624L666 846L682 892V1088L640 1128H80L38 1088V892L54 846L96 812H294V780L266 746L220 724L76 696L44 666L34 632L48 166C49 144 66 126 92 126Z" fill="#314d83" opacity="0.26" transform="translate(0 16)"/>
  <path d="M92 126L626 130C654 132 674 148 674 168L686 632L676 666L646 696L500 724L454 746L426 780V812H624L666 846L682 892V1088L640 1128H80L38 1088V892L54 846L96 812H294V780L266 746L220 724L76 696L44 666L34 632L48 166C49 144 66 126 92 126Z" fill="#d4def2"/>
  <path d="M92 126L626 130C654 132 674 148 674 168L686 632L676 666L646 696L500 724L454 746L426 780V812H624L666 846L682 892V1088L640 1128H80L38 1088V892L54 846L96 812H294V780L266 746L220 724L76 696L44 666L34 632L48 166C49 144 66 126 92 126Z" stroke="#3e5f98" stroke-width="22" opacity="0.52" transform="translate(0 10)" stroke-linejoin="round"/>
  <path d="M92 126L626 130C654 132 674 148 674 168L686 632L676 666L646 696L500 724L454 746L426 780V812H624L666 846L682 892V1088L640 1128H80L38 1088V892L54 846L96 812H294V780L266 746L220 724L76 696L44 666L34 632L48 166C49 144 66 126 92 126Z" stroke="#466aa0" stroke-width="14" stroke-linejoin="round"/>
  <path d="M92 156H620C636 156 648 168 648 184L660 614L642 640L614 654H494C470 654 450 674 450 698V756C450 780 470 800 494 800H610C636 800 658 818 666 842L682 892V1088L640 1128H80L38 1088V892L54 846C62 820 84 800 110 800H226C250 800 270 780 270 756V698C270 674 250 654 226 654H106L72 634L60 612L74 184C74 168 82 156 92 156Z" fill="#a8c4d1"/>
  <path d="M92 184H616C630 184 640 194 640 208L652 596C652 616 634 632 612 632H494C456 632 426 662 426 700V756C426 795 456 824 494 824H600C624 824 644 840 652 862L662 904V1058L606 1084H114L58 1058V904L68 864C76 842 96 824 120 824H226C264 824 294 795 294 756V700C294 662 264 632 226 632H108C86 632 68 616 68 594L80 208C80 194 84 184 92 184Z" fill="#c3d7e1" opacity="0.36"/>
  <path d="M60 620H230C268 620 300 652 300 690V750C300 776 290 798 268 812L88 840" stroke="#7395ac" stroke-width="10" opacity="0.45" stroke-linecap="round"/>
  <path d="M660 620H490C452 620 420 652 420 690V750C420 776 430 798 452 812L632 840" stroke="#7395ac" stroke-width="10" opacity="0.45" stroke-linecap="round"/>
  <path d="M104 126H620C650 126 674 148 674 178L686 632" stroke="#d7ecf4" stroke-width="4" opacity="0.24" stroke-linecap="round"/>

</svg>
