<svg width="720" height="1300" viewBox="0 0 720 1300" fill="none" xmlns="http://www.w3.org/2000/svg">
<path opacity="0.26" d="M92 142L626 146C654 148 674 164 674 184L686 648L676 682L646 712L500 740L454 762L426 796V828H624L666 862L682 908V1104L640 1144H80L38 1104V908L54 862L96 828H294V796L266 762L220 740L76 712L44 682L34 648L48 182C49 160 66 142 92 142Z" fill="#314D83"/>
<path d="M92 126L626 130C654 132 674 148 674 168L686 632L676 666L646 696L500 724L454 746L426 780V812H624L666 846L682 892V1237.5L672.5 1256L642 1269L80 1262.95L49 1253.45L38 1222.95V892L54 846L96 812H294V780L266 746L220 724L76 696L44 666L34 632L48 166C49 144 66 126 92 126Z" fill="#D4DEF2"/>
<path opacity="0.52" d="M92 136L626 140C654 142 674 158 674 178L686 642L676 676L646 706L500 734L454 756L426 790V822H624L666 856L682 902V1226L669.5 1246.5L640 1266H80L54 1246.5L38 1226V902L54 856L96 822H294V790L261 756L220 734L76 706L44 676L34 642L48 176C49 154 66 136 92 136Z" stroke="#3E5F98" stroke-width="22" stroke-linejoin="round"/>
<path d="M670.991 677.363C664.993 685.041 652.497 693.36 646.999 696.559C621.507 702.621 564.425 715.452 540.033 718.281C509.543 721.818 479.996 735.438 466 741.5C452.004 747.562 422.57 783.534 422.57 790V812.243C472.554 807.696 582.02 812.243 628.005 812.243C655.496 812.243 685.986 865.286 685.986 892.565V1236.65C685.986 1250.29 657.995 1270.5 637.002 1270.5C616.009 1270.5 104.171 1271.51 83.1781 1270.5C62.1847 1269.49 35.1932 1237.66 35.1932 1223.01L35.1932 931.968C35.1932 914.287 35.1932 886.503 47.6893 863.265C60.1854 840.027 66.6833 812.243 104.171 812.243H296.11C296.777 808.538 297.71 802.665 296.11 786.5C295.611 781.448 245.5 733.152 224.633 727.88C184.646 717.776 106.671 707.673 76.68 698.58C46.6896 689.487 33.1939 651.599 35.1932 632.403C37.1926 613.206 48.6889 184.318 48.6889 154.513C48.6889 134.306 71.1818 126.223 87.6765 126.223C262.621 126.055 617.608 125.819 638.002 126.223C663.494 126.728 672.991 146.43 672.991 158.049C672.991 169.668 686.486 622.299 685.986 634.423C685.487 646.547 678.489 667.764 670.991 677.363Z" stroke="#486CA8" stroke-width="14"/>
</svg>
