<?xml version="1.0" encoding="UTF-8"?>
<svg xmlns="http://www.w3.org/2000/svg" width="520" height="360" viewBox="0 0 520 360" fill="none">

  <path d="M104 24H416V120H360V216H464V312H256V216H208V312H56V120H104Z" fill="#94b3c2" opacity="0.4"/>
  <path d="M104 24H416V120H360V216H464V312H256V216H208V312H56V120H104Z" stroke="#3c607a" stroke-width="18" opacity="0.28" transform="translate(0 10)" stroke-linejoin="round"/>
  <path d="M104 24H416V120H360V216H464V312H256V216H208V312H56V120H104Z" stroke="#3f637a" stroke-width="8" stroke-linejoin="round"/>
  <path d="M104 24H416V120H360V216H464V312H256V216H208V312H56V120H104Z" stroke="#d7ecf4" stroke-width="3" opacity="0.22" transform="translate(0 -2)" stroke-linejoin="round"/>

</svg>
