<?xml version="1.0" encoding="UTF-8"?>
<svg xmlns="http://www.w3.org/2000/svg" width="110" height="110" viewBox="0 0 110 110" fill="none">

  <rect x="10" y="12" width="96" height="96" rx="24" fill="#24325f" opacity="0.36"/>
  <rect x="0" y="8" width="100" height="96" rx="24" fill="#5b238d" stroke="#342052" stroke-width="4"/>
  <rect x="0" y="0" width="100" height="96" rx="24" fill="#b66bf2" stroke="#5b238d" stroke-width="4"/>
  <rect x="10" y="8" width="78" height="26" rx="13" fill="#ffffff" opacity="0.22"/>
  <path d="M46 19H56L60 32L73 27L80 36L72 48L86 53V63L72 67L79 80L71 87L60 80L55 93H45L41 80L28 86L21 78L29 67L15 62V52L29 48L21 35L29 28L41 33Z" fill="#ffffff" stroke="#6d2eab" stroke-width="4" stroke-linejoin="round"/>
  <circle cx="50" cy="56" r="13" fill="#6d2eab"/>
  <circle cx="50" cy="56" r="7" fill="#ffffff"/>

</svg>
