<?xml version="1.0" encoding="UTF-8"?>
<svg xmlns="http://www.w3.org/2000/svg" width="96" height="96" viewBox="0 0 96 96" fill="none">

  <rect x="7" y="11" width="88" height="88" rx="16" fill="#2d477a" opacity="0.22"/>
  <rect x="0" y="8" width="96" height="96" rx="16" fill="#000000" opacity="0.16"/>
  <rect x="0" y="0" width="96" height="96" rx="16" fill="#ffe424"/>
  <rect x="10" y="8" width="76" height="21" rx="11" fill="#ffffff" opacity="0.32"/>
  <rect x="6" y="72" width="84" height="19" rx="9" fill="#000000" opacity="0.12"/>
  <rect x="14" y="24" width="68" height="58" rx="12" fill="#173968" opacity="0.2"/>

  <circle cx="30" cy="33" r="10" fill="#000000" opacity="0.12"/>
  <circle cx="28" cy="30" r="10" fill="#ffe424"/>
  <circle cx="25" cy="27" r="3.4" fill="#ffffff" opacity="0.24"/>
  <circle cx="50" cy="33" r="10" fill="#000000" opacity="0.12"/>
  <circle cx="48" cy="30" r="10" fill="#ffe424"/>
  <circle cx="45" cy="27" r="3.4" fill="#ffffff" opacity="0.24"/>
  <circle cx="70" cy="33" r="10" fill="#000000" opacity="0.12"/>
  <circle cx="68" cy="30" r="10" fill="#ffe424"/>
  <circle cx="65" cy="27" r="3.4" fill="#ffffff" opacity="0.24"/>
  <circle cx="30" cy="53" r="10" fill="#000000" opacity="0.12"/>
  <circle cx="28" cy="50" r="10" fill="#ffe424"/>
  <circle cx="25" cy="47" r="3.4" fill="#ffffff" opacity="0.24"/>
  <circle cx="50" cy="53" r="10" fill="#000000" opacity="0.12"/>
  <circle cx="48" cy="50" r="10" fill="#ffe424"/>
  <circle cx="45" cy="47" r="3.4" fill="#ffffff" opacity="0.24"/>
  <circle cx="70" cy="53" r="10" fill="#000000" opacity="0.12"/>
  <circle cx="68" cy="50" r="10" fill="#ffe424"/>
  <circle cx="65" cy="47" r="3.4" fill="#ffffff" opacity="0.24"/>
  <circle cx="30" cy="73" r="10" fill="#000000" opacity="0.12"/>
  <circle cx="28" cy="70" r="10" fill="#ffe424"/>
  <circle cx="25" cy="67" r="3.4" fill="#ffffff" opacity="0.24"/>
  <circle cx="50" cy="73" r="10" fill="#000000" opacity="0.12"/>
  <circle cx="48" cy="70" r="10" fill="#ffe424"/>
  <circle cx="45" cy="67" r="3.4" fill="#ffffff" opacity="0.24"/>
  <circle cx="70" cy="73" r="10" fill="#000000" opacity="0.12"/>
  <circle cx="68" cy="70" r="10" fill="#ffe424"/>
  <circle cx="65" cy="67" r="3.4" fill="#ffffff" opacity="0.24"/>
  <rect x="14" y="27" width="68" height="50" rx="12" stroke="#23385f" stroke-width="3" opacity="0.2"/>
  <rect x="2" y="2" width="92" height="92" rx="15" stroke="#ffffff" stroke-width="4" opacity="0.38"/>
  <rect x="0" y="0" width="96" height="96" rx="16" stroke="#29457a" stroke-width="4" opacity="0.34"/>


</svg>
