<?xml version="1.0" encoding="UTF-8"?>
<svg xmlns="http://www.w3.org/2000/svg" width="100" height="50" viewBox="0 0 100 50" fill="none">

  <rect x="5" y="7" width="100" height="50" rx="10" fill="#2d477a" opacity="0.2"/>
  <rect x="0" y="8" width="100" height="42" rx="8" fill="#000000" opacity="0.14"/>
  <rect x="0" y="0" width="100" height="50" rx="8" fill="#a66bf0"/>
  <rect x="6" y="5" width="88" height="13" rx="7" fill="#ffffff" opacity="0.22"/>
  <rect x="4" y="37" width="92" height="9" rx="5" fill="#000000" opacity="0.12"/>

  <circle cx="30" cy="28" r="13" fill="#23385f" opacity="0.2"/>
  <circle cx="28" cy="25" r="12" fill="#a66bf0"/>
  <circle cx="24" cy="21" r="4" fill="#ffffff" opacity="0.42"/>
  <circle cx="28" cy="25" r="12" stroke="#ffffff" stroke-width="2" opacity="0.36"/>
  <circle cx="52" cy="28" r="13" fill="#23385f" opacity="0.2"/>
  <circle cx="50" cy="25" r="12" fill="#a66bf0"/>
  <circle cx="46" cy="21" r="4" fill="#ffffff" opacity="0.42"/>
  <circle cx="50" cy="25" r="12" stroke="#ffffff" stroke-width="2" opacity="0.36"/>
  <circle cx="74" cy="28" r="13" fill="#23385f" opacity="0.2"/>
  <circle cx="72" cy="25" r="12" fill="#a66bf0"/>
  <circle cx="68" cy="21" r="4" fill="#ffffff" opacity="0.42"/>
  <circle cx="72" cy="25" r="12" stroke="#ffffff" stroke-width="2" opacity="0.36"/>
  <rect x="1.5" y="1.5" width="97" height="47" rx="7" stroke="#29457a" stroke-width="3" opacity="0.4"/>

</svg>
